<?xml version="1.0" encoding="UTF-8"?>
<svg width="24" height="24" viewBox="0 0 24 24" fill="none" xmlns="http://www.w3.org/2000/svg">
  <path fill-rule="evenodd" clip-rule="evenodd" d="M24 12C24 18.6274 18.6274 24 12 24C5.37258 24 0 18.6274 0 12C0 5.37258 5.37258 0 12 0C18.6274 0 24 5.37258 24 12ZM12.43 8.859C11.2635 9.346 8.93016 10.3815 5.43291 11.9655C4.86316 12.1935 4.56341 12.417 4.53366 12.636C4.48391 13.011 4.96316 13.1625 5.61241 13.371L6.01191 13.503C6.64816 13.7145 7.50691 13.9605 7.94916 13.971C8.35166 13.9815 8.80141 13.8165 9.29841 13.476C12.5684 11.2515 14.2474 10.131 14.3354 10.014C14.3969 9.93 14.4794 9.93 14.4264 10.014C14.3734 10.098 12.8104 11.558 11.2034 12.966C10.7519 13.371 10.4329 13.6545 10.3859 13.7025C10.2799 13.8165 10.1704 13.923 10.0644 14.0265C9.23216 14.82 8.60841 15.417 10.0984 16.368C10.8244 16.8375 11.4094 17.2305 11.9909 17.6235C12.6329 18.0555 13.2749 18.4875 14.1184 19.026C14.3264 19.167 14.5239 19.314 14.7144 19.455C15.4844 19.9995 16.1789 20.4885 17.0294 20.409C17.5184 20.3635 18.0264 19.902 18.2849 18.519C18.9199 15.0645 20.1664 7.93199 20.4564 5.01899C20.4675 4.83869 20.4675 4.65805 20.4564 4.47749C20.4508 4.32678 20.3968 4.18225 20.3014 4.06199C20.1154 3.88949 19.8089 3.85199 19.6694 3.85499C19.1474 3.86399 18.3644 4.13399 12.43 8.859Z" fill="#06b6e2"/>
</svg> 