<?xml version="1.0" encoding="UTF-8"?>
<svg width="24" height="24" viewBox="0 0 24 24" fill="none" xmlns="http://www.w3.org/2000/svg">
  <path d="M15.684 14.828c.92.9 1.889 1.747 2.714 2.74.363.438.707.89.969 1.397.37.718.035 1.507-.607 1.55l-3.99-.002c-1.03.086-1.851-.33-2.544-1.033-.553-.563-1.065-1.162-1.597-1.743-.217-.23-.445-.447-.712-.626-.54-.358-1.008-.248-1.316.32-.315.576-.387 1.213-.418 1.853-.043.935-.325 1.18-1.263 1.223-2.002.097-3.903-.209-5.668-1.222-1.557-.894-2.762-2.156-3.812-3.573-2.045-2.764-3.615-5.807-5.01-8.936-.316-.703-.085-1.08.691-1.094 1.286-.027 2.572-.025 3.86-.002.523.008.87.308 1.072.799.696 1.703 1.548 3.32 2.615 4.818.285.401.575.802.986 1.088.456.318.803.212 1.018-.299.136-.328.194-.68.224-1.032.101-1.215.114-2.428-.062-3.638-.108-.747-.518-1.231-1.265-1.373-.376-.071-.32-.21-.138-.423.316-.375.613-.607 1.205-.607h4.51c.71.14.868.46.966 1.173l.004 5.01c-.007.277.138 1.1.636 1.284.398.127.66-.188.899-.44 1.078-1.143 1.847-2.493 2.537-3.887.305-.602.566-1.226.82-1.846.188-.467.484-.696.995-.686l4.341.004c.129 0 .259.002.385.047.734.163.936.574.709 1.289-.362 1.126-1.067 2.064-1.756 3.007-.739 1.012-1.53 1.989-2.265 3.004-.68.932-.625 1.401.218 2.21z" fill="#06b6e2"/>
</svg> 